<?xml version="1.0" encoding="iso-8859-1"?>
<!-- Uploaded to: SVG Repo, www.svgrepo.com, Generator: SVG Repo Mixer Tools -->
<svg version="1.1" id="Layer_1" xmlns="http://www.w3.org/2000/svg" xmlns:xlink="http://www.w3.org/1999/xlink" 
	 viewBox="0 0 512 512" xml:space="preserve">
<path style="fill:#E0DDDF;" d="M361.971,461.648c-11.713,0-21.201-9.487-21.201-21.201v-84.803c0-11.713,9.487-21.201,21.201-21.201
	h10.781c-5.406-17.204-21.476-29.681-40.462-29.681H128.761c-23.416,0-42.402,18.985-42.402,42.402V504.05h288.331v-21.201v-21.201
	H361.971z"/>
<path style="fill:#C1BCBF;" d="M154.202,304.762h-25.441c-23.416,0-42.402,18.985-42.402,42.402V504.05h25.441V347.164
	C111.801,323.747,130.786,304.762,154.202,304.762z"/>
<polygon style="fill:#FFFFFF;" points="145.722,304.762 230.525,419.246 315.329,304.762 "/>
<polygon style="fill:#439EE8;" points="251.726,351.404 209.325,351.404 204.024,367.304 257.026,367.304 "/>
<g>
	<polygon style="fill:#5CC4E0;" points="204.024,367.304 200.844,376.845 230.525,415.006 260.207,376.845 257.026,367.304 	"/>
	<polygon style="fill:#5CC4E0;" points="264.447,304.762 251.726,351.404 209.325,351.404 196.604,304.762 	"/>
</g>
<g>
	<path style="fill:#FF675C;" d="M425.573,461.648v21.201c0,11.713-9.487,21.201-21.201,21.201h-8.48
		c-11.713,0-21.201-9.487-21.201-21.201v-21.201H425.573z"/>
	<rect x="374.693" y="287.801" style="fill:#FF675C;" width="50.882" height="46.642"/>
</g>
<g>
	<path style="fill:#FAEC8E;" d="M425.573,334.443c23.416,0,42.402,18.985,42.402,42.402v42.402
		c0,23.416-18.985,42.402-42.402,42.402c0,0-44.522,0-63.603,0c-11.713,0-21.201-9.487-21.201-21.201v-84.803
		c0-11.713,9.487-21.201,21.201-21.201H425.573z"/>
	<path style="fill:#FAEC8E;" d="M87.25,156.155c8.597,29.278,15.901,53.988,18.89,63.677c-0.933,0.074-1.866,0.127-2.82,0.127
		c-18.731,0-33.921-15.19-33.921-33.921C69.399,173.115,76.629,161.89,87.25,156.155z"/>
	<path style="fill:#FAEC8E;" d="M374.585,156.611c10.198,5.851,17.067,16.833,17.067,29.427c0,18.731-15.19,33.921-33.921,33.921
		c-0.636,0-1.272-0.021-1.897-0.053C365.787,201.132,373.642,178.988,374.585,156.611z"/>
	<path style="fill:#FAEC8E;" d="M353.49,143.636v29.681c0,67.917-55.048,122.965-122.965,122.965s-122.965-55.048-122.965-122.965
		v-29.681l25.441-50.882l3.572,1.24l93.951,32.681l93.951-32.681l3.572-1.24L353.49,143.636z"/>
</g>
<path style="fill:#FBC96C;" d="M133.002,173.317v-29.681l21.673-43.345l-18.1-6.297l-3.572-1.24l-25.441,50.882v29.681
	c0,67.917,55.048,122.965,122.965,122.965c4.295,0,8.539-0.222,12.721-0.652C181.308,289.265,133.002,236.938,133.002,173.317z"/>
<path style="fill:#827980;" d="M355.833,219.906c-0.774,1.452-1.548,2.883-2.343,4.293v-4.516v-46.366v-29.681l-25.441-50.882
	l-3.572,1.24l-93.951,32.681l-93.951-32.681l-3.572-1.24l-25.441,50.882v29.681v46.366v4.516c-0.117-0.212-0.604-1.738-1.42-4.367
	c-2.989-9.689-10.293-34.398-18.89-63.677C68.636,92.754,43.958,7.95,43.958,7.95h186.567c79.62,0,144.166,64.546,144.166,144.166
	c0,1.495-0.042,2.989-0.106,4.495C373.642,178.988,365.787,201.132,355.833,219.906z"/>
<path style="fill:#5293C4;" d="M326.989,144.166h-65.723c-5.624,0-10.428,3.527-12.347,8.48h-36.787
	c-1.921-4.954-6.725-8.48-12.347-8.48h-65.723c-7.307,0-13.251,5.944-13.251,13.251v44.522c0,7.307,5.944,13.251,13.251,13.251
	h65.723c7.307,0,13.251-5.944,13.251-13.251v-33.391h34.981v33.391c0,7.307,5.944,13.251,13.251,13.251h65.723
	c7.307,0,13.251-5.944,13.251-13.251v-44.522C340.24,150.109,334.296,144.166,326.989,144.166z M197.134,199.288h-60.422v-39.222
	h60.422V199.288z M324.339,199.288h-60.422v-39.222h60.422V199.288z"/>
<g>
	<path style="fill:#FF675C;" d="M400.132,249.11c-4.392,0-7.95-3.56-7.95-7.95v-12.72c0-4.391,3.559-7.95,7.95-7.95
		s7.95,3.56,7.95,7.95v12.72C408.082,245.55,404.524,249.11,400.132,249.11z"/>
	<path style="fill:#FF675C;" d="M421.333,274.551c-4.392,0-7.95-3.56-7.95-7.95V253.88c0-4.391,3.559-7.95,7.95-7.95
		s7.95,3.56,7.95,7.95V266.6C429.283,270.991,425.725,274.551,421.333,274.551z"/>
	<path style="fill:#FF675C;" d="M378.931,274.551c-4.392,0-7.95-3.56-7.95-7.95V253.88c0-4.391,3.559-7.95,7.95-7.95
		c4.392,0,7.95,3.56,7.95,7.95V266.6C386.882,270.991,383.323,274.551,378.931,274.551z"/>
</g>
<path d="M230.525,473.141c-4.391,0-7.95,3.56-7.95,7.95v5.154c0,4.391,3.56,7.95,7.95,7.95c4.391,0,7.95-3.56,7.95-7.95v-5.154
	C238.476,476.701,234.916,473.141,230.525,473.141z"/>
<path d="M315.329,428.257h-33.921c-4.392,0-7.95,3.56-7.95,7.95c0,4.391,3.559,7.95,7.95,7.95h33.921c4.392,0,7.95-3.56,7.95-7.95
	C323.279,431.816,319.72,428.257,315.329,428.257z"/>
<path d="M260.734,239.04c3.513-2.633,4.227-7.616,1.593-11.13c-2.632-3.513-7.616-4.227-11.13-1.593
	c-8.001,5.997-16.386,6.891-20.673,6.891c-10.01,0-17.244-4.313-20.663-6.885c-3.51-2.637-8.495-1.931-11.133,1.577
	c-2.638,3.51-1.931,8.494,1.577,11.133c5.007,3.763,15.588,10.076,30.219,10.076C236.79,249.11,249.045,247.802,260.734,239.04z"/>
<path d="M171.163,169.607h-8.48c-4.391,0-7.95,3.56-7.95,7.95c0,4.391,3.56,7.95,7.95,7.95h8.48c4.391,0,7.95-3.56,7.95-7.95
	C179.113,173.166,175.554,169.607,171.163,169.607z"/>
<path d="M289.888,185.507h8.48c4.392,0,7.95-3.56,7.95-7.95c0-4.391-3.559-7.95-7.95-7.95h-8.48c-4.392,0-7.95,3.56-7.95,7.95
	C281.937,181.948,285.497,185.507,289.888,185.507z"/>
<path d="M467.975,408.116c4.392,0,7.95-3.56,7.95-7.95v-23.321c0-25.058-18.402-45.894-42.402-49.718v-31.375h9.01
	c4.332,0,7.95-3.618,7.95-7.95s-3.618-7.95-7.95-7.95H357.73c-4.332,0-7.95,3.618-7.95,7.95s3.618,7.95,7.95,7.95h9.01v14.617
	c-9.095-8.526-21.274-13.557-34.451-13.557h-58.317c32.668-11.527,59.437-35.664,74.418-66.544c3.992,3.359,9.731,1.911,12.19-2.467
	c11.831-0.8,22.947-6.763,30.222-16.118c7.611-9.787,10.29-22.455,7.982-34.576c-1.657-8.704-7.133-17.571-16.148-26.039
	c-0.041-6.105-0.446-12.207-1.216-18.263C371.893,57.886,305.996,0,230.525,0H43.958c-5.477,0-9.007,5.355-7.556,10.439
	c0.386,1.353,36.13,123.786,40.111,137.361c0.482,1.646,0.966,3.292,1.448,4.939c-11.391,8.68-17.651,22.916-16.334,37.178
	c1.163,12.603,8.207,24.206,18.781,31.142c5.977,3.921,12.933,6.261,20.064,6.743c2.319,4.484,8.305,5.734,12.189,2.467
	c14.982,30.879,41.749,55.016,74.418,66.543h-58.317c-27.764,0-50.352,22.588-50.352,50.352V504.05c0,4.391,3.56,7.95,7.95,7.95
	h288.331c2.88,0,5.393-1.536,6.788-3.828c4.254,2.431,9.171,3.828,14.412,3.828h8.48c16.073,0,29.151-13.077,29.151-29.151V468.9
	c16.521-2.866,31.741-14.286,38.538-29.7c1.276-2.895,2.742-6.027,2.561-9.271c-0.16-2.874-1.912-5.427-4.504-6.667
	c-2.455-1.173-5.381-1.016-7.677,0.454c-3.027,1.937-3.321,5.081-4.54,8.155c-1.535,3.871-3.91,7.384-6.781,10.391
	c-6.564,6.874-15.96,11.437-25.548,11.437h-63.603c-7.307,0-13.251-5.944-13.251-13.251v-4.797c0.176,0.012,0.351,0.026,0.53,0.026
	h42.402c4.332,0,7.95-3.618,7.95-7.95s-3.618-7.95-7.95-7.95H349.25c-0.179,0-0.354,0.015-0.53,0.026v-13.834
	c0.176,0.012,0.351,0.027,0.53,0.027h42.402c4.332,0,7.95-3.618,7.95-7.95s-3.618-7.95-7.95-7.95H349.25
	c-0.179,0-0.354,0.015-0.53,0.026v-13.834c0.176,0.012,0.351,0.026,0.53,0.026h42.402c4.332,0,7.95-3.618,7.95-7.95
	c0-4.332-3.618-7.95-7.95-7.95H349.25c-0.179,0-0.354,0.015-0.53,0.026v-4.797c0-7.307,5.944-13.251,13.251-13.251h63.603
	c18.997,0,34.451,15.455,34.451,34.451v23.321C460.024,404.556,463.584,408.116,467.975,408.116z M369.85,208.998
	c4.376-10.216,8.441-22.222,10.765-35.175c1.983,3.707,3.087,7.889,3.087,12.216C383.701,195.983,378.08,204.636,369.85,208.998z
	 M230.525,15.901c75.109,0,136.215,61.106,136.215,136.215c0,1.235-0.031,2.558-0.099,4.16c-0.435,10.303-2.444,20.303-5.202,29.492
	v-42.132c0-1.235-0.287-2.451-0.84-3.555L335.16,89.198c-1.379-2.759-4.173-4.396-7.112-4.396c-0.866,0-1.746,0.142-2.607,0.441
	l-94.916,33.015l-91.344-31.775l-3.572-1.24c-3.775-1.308-7.932,0.383-9.717,3.955l-25.441,50.882
	c-0.552,1.105-0.84,2.32-0.84,3.555v26.375c-1.475-5.009-3.052-10.376-4.732-16.096c-0.002-0.005-0.003-0.012-0.005-0.017
	c-0.005-0.019-0.012-0.039-0.017-0.058C80.232,104.028,61.674,40.346,54.553,15.901H230.525z M77.349,186.037
	c0-5.978,2.048-11.645,5.645-16.167c5.209,17.709,9.243,31.341,12.066,40.783C84.778,207.194,77.349,197.47,77.349,186.037z
	 M115.511,173.317v-27.804l21.479-42.956l90.924,31.627c1.692,0.589,3.532,0.589,5.224,0l90.924-31.627l21.479,42.956v27.804
	c0,63.419-51.595,115.014-115.014,115.014S115.511,236.736,115.511,173.317z M417.623,295.752v30.741h-34.981v-30.741H417.623z
	 M230.525,405.89l-21.367-28.846l5.897-17.69h30.94l5.897,17.69L230.525,405.89z M254.038,312.712l-8.384,30.741h-30.257
	l-8.384-30.741H254.038z M190.532,312.712l10.489,38.461l-3.422,10.265l-36.094-48.727H190.532z M263.452,361.439l-3.422-10.266
	l10.488-38.46h29.027L263.452,361.439z M404.372,496.099h-8.48c-7.307,0-13.251-5.944-13.251-13.251v-13.251h34.981v13.251
	C417.623,490.156,411.679,496.099,404.372,496.099z M332.819,355.644v84.803c0,16.074,13.078,29.151,29.151,29.151h4.77v26.501
	H94.31V347.164c0-18.996,15.455-34.451,34.451-34.451h12.956l80.858,109.159v35.661c0,4.391,3.56,7.95,7.95,7.95
	c4.391,0,7.95-3.56,7.95-7.95v-35.661l80.858-109.159h12.956c11.172,0,21.284,5.292,27.643,13.86
	C344.807,327.623,332.819,340.256,332.819,355.644z"/>
</svg>